<svg xml:space="preserve" viewBox="86.848 472.57599999999996 1299.776 362.752" width="1299.776" y="0px" x="0px" xmlns:xlink="http://www.w3.org/1999/xlink" xmlns="http://www.w3.org/2000/svg" id="Layer_1" version="1.1" style="max-height: 500px" height="362.752">
<path d="M0.999998,630.000000 &#10;&#9;C1.000000,420.368469 1.000000,210.736923 1.000000,1.052694 &#10;&#9;C491.549316,1.052694 982.098633,1.052694 1472.823975,1.052694 &#10;&#9;C1472.823975,278.333221 1472.823975,555.666626 1472.823975,833.000000 &#10;&#9;C1471.658325,833.000000 1470.325195,833.000000 1468.622925,832.663940 &#10;&#9;C1423.369385,785.595520 1374.547119,743.379944 1322.089355,705.385010 &#10;&#9;C1215.465942,628.158386 1098.852539,571.100098 972.936279,532.908630 &#10;&#9;C911.596924,514.303833 849.169312,500.668121 785.681274,491.817474 &#10;&#9;C744.079346,486.017853 702.323608,481.627258 660.326782,481.064728 &#10;&#9;C623.197998,480.567413 586.007935,480.595123 548.922302,482.190125 &#10;&#9;C518.017700,483.519287 487.050690,486.224518 456.427887,490.557617 &#10;&#9;C419.269226,495.815491 382.282013,502.641602 345.515411,510.219513 &#10;&#9;C303.236206,518.933655 261.773865,530.962219 220.612808,545.193970 &#10;&#9;C211.410126,548.420166 202.578186,551.638123 193.369400,554.876221 &#10;&#9;C187.067169,556.955017 181.176453,559.120422 175.210968,561.055420 &#10;&#9;C124.396362,577.537659 74.407326,596.145508 25.958361,618.749634 &#10;&#9;C17.689245,622.607666 9.321938,626.255188 0.999998,630.000000 &#10;z" stroke="none" opacity="1.000000" fill="#FFFFFF"/>
<path d="M0.999998,630.468628 &#10;&#9;C9.321938,626.255188 17.689245,622.607666 25.958361,618.749634 &#10;&#9;C74.407326,596.145508 124.396362,577.537659 175.210968,561.055420 &#10;&#9;C181.176453,559.120422 187.067169,556.955017 193.698898,554.945557 &#10;&#9;C206.559036,551.631836 218.712845,548.268860 230.896698,544.929993 &#10;&#9;C230.926773,544.954041 230.961411,544.885254 231.352173,544.927124 &#10;&#9;C234.611725,544.065674 237.480530,543.162415 240.524078,542.249817 &#10;&#9;C240.698822,542.240479 241.005661,542.072144 241.395187,542.092651 &#10;&#9;C243.461273,541.711243 245.137833,541.309387 247.210251,540.873657 &#10;&#9;C269.498444,535.883606 291.317230,530.570007 313.298706,526.047058 &#10;&#9;C356.502380,517.157471 400.088165,510.500427 444.044922,506.878906 &#10;&#9;C479.040314,503.995667 514.114502,501.099701 549.194092,500.474121 &#10;&#9;C585.955872,499.818573 622.826721,500.838562 659.537354,503.019989 &#10;&#9;C695.384033,505.150085 731.197144,508.818695 766.828430,513.355530 &#10;&#9;C812.876221,519.218628 858.355652,528.489258 903.430237,539.703186 &#10;&#9;C975.459656,557.623108 1045.418579,581.515930 1113.326172,611.484314 &#10;&#9;C1191.314575,645.901428 1264.835205,688.064575 1333.806396,738.156311 &#10;&#9;C1368.067261,763.038940 1400.777954,789.825256 1431.901001,818.533386 &#10;&#9;C1436.843506,823.092346 1441.312256,828.164917 1446.000000,833.000000 &#10;&#9;C964.333313,833.000000 482.666656,833.000000 1.000000,833.000000 &#10;&#9;C1.000000,765.568359 1.000000,698.252808 0.999998,630.468628 &#10;z" stroke="none" opacity="1.000000" fill="#D85829"/>
<path d="M1446.468506,833.000000 &#10;&#9;C1441.312256,828.164917 1436.843506,823.092346 1431.901001,818.533386 &#10;&#9;C1400.777954,789.825256 1368.067261,763.038940 1333.806396,738.156311 &#10;&#9;C1264.835205,688.064575 1191.314575,645.901428 1113.326172,611.484314 &#10;&#9;C1045.418579,581.515930 975.459656,557.623108 903.430237,539.703186 &#10;&#9;C858.355652,528.489258 812.876221,519.218628 766.828430,513.355530 &#10;&#9;C731.197144,508.818695 695.384033,505.150085 659.537354,503.019989 &#10;&#9;C622.826721,500.838562 585.955872,499.818573 549.194092,500.474121 &#10;&#9;C514.114502,501.099701 479.040314,503.995667 444.044922,506.878906 &#10;&#9;C400.088165,510.500427 356.502380,517.157471 313.298706,526.047058 &#10;&#9;C291.317230,530.570007 269.498444,535.883606 246.820007,540.850769 &#10;&#9;C244.357819,541.265198 242.681747,541.668701 241.005676,542.072144 &#10;&#9;C241.005661,542.072144 240.698822,542.240479 240.100403,542.168457 &#10;&#9;C236.655121,543.026062 233.808258,543.955688 230.961411,544.885254 &#10;&#9;C230.961411,544.885254 230.926773,544.954041 230.484787,544.916870 &#10;&#9;C227.023056,544.981689 224.003296,545.083618 220.983551,545.185608 &#10;&#9;C261.773865,530.962219 303.236206,518.933655 345.515411,510.219513 &#10;&#9;C382.282013,502.641602 419.269226,495.815491 456.427887,490.557617 &#10;&#9;C487.050690,486.224518 518.017700,483.519287 548.922302,482.190125 &#10;&#9;C586.007935,480.595123 623.197998,480.567413 660.326782,481.064728 &#10;&#9;C702.323608,481.627258 744.079346,486.017853 785.681274,491.817474 &#10;&#9;C849.169312,500.668121 911.596924,514.303833 972.936279,532.908630 &#10;&#9;C1098.852539,571.100098 1215.465942,628.158386 1322.089355,705.385010 &#10;&#9;C1374.547119,743.379944 1423.369385,785.595520 1468.126953,832.663940 &#10;&#9;C1460.979004,833.000000 1453.958130,833.000000 1446.468506,833.000000 &#10;z" stroke="none" opacity="1.000000" fill="#060303"/>
<path d="M220.612808,545.193970 &#10;&#9;C224.003296,545.083618 227.023056,544.981689 230.454712,544.892822 &#10;&#9;C218.712845,548.268860 206.559036,551.631836 194.075745,554.925415 &#10;&#9;C202.578186,551.638123 211.410126,548.420166 220.612808,545.193970 &#10;z" stroke="none" opacity="1.000000" fill="#39150C"/>
<path d="M231.352173,544.927124 &#10;&#9;C233.808258,543.955688 236.655121,543.026062 239.925659,542.177856 &#10;&#9;C237.480530,543.162415 234.611725,544.065674 231.352173,544.927124 &#10;z" stroke="none" opacity="1.000000" fill="#39150C"/>
<path d="M241.395203,542.092651 &#10;&#9;C242.681747,541.668701 244.357819,541.265198 246.424133,540.884644 &#10;&#9;C245.137833,541.309387 243.461273,541.711243 241.395203,542.092651 &#10;z" stroke="none" opacity="1.000000" fill="#39150C"/>
</svg>